<?xml version="1.0" encoding="UTF-8" standalone="no"?>
<!-- Created with Inkscape (http://www.inkscape.org/) -->

<svg
        xmlns:inkscape="http://www.inkscape.org/namespaces/inkscape"
        xmlns:sodipodi="http://sodipodi.sourceforge.net/DTD/sodipodi-0.dtd"
        width="1500"
        height="3500"
        viewBox="0 0 396.875 926.04167"
        version="1.1"
        id="svg5"
        inkscape:version="1.2.1 (9c6d41e410, 2022-07-14)"
        sodipodi:docname="flight_profile_drogue.svg"
        xmlns="http://www.w3.org/2000/svg"
>
    <sodipodi:namedview
            id="namedview7"
            pagecolor="#000000"
            bordercolor="#000000"
            borderopacity="0.25"
            inkscape:showpageshadow="2"
            inkscape:pageopacity="0"
            inkscape:pagecheckerboard="0"
            inkscape:deskcolor="#d1d1d1"
            inkscape:document-units="px"
            showgrid="false"
            inkscape:zoom="0.32346812"
            inkscape:cx="301.42074"
            inkscape:cy="967.63787"
            inkscape:window-width="2560"
            inkscape:window-height="1367"
            inkscape:window-x="0"
            inkscape:window-y="0"
            inkscape:window-maximized="1"
            inkscape:current-layer="layer1"/>
    <defs
            id="defs2"/>
    <g
            inkscape:label="Layer 1"
            inkscape:groupmode="layer"
            id="layer1">
        <g
                id="g64979"
                transform="translate(-121.87574,-49.486459)">
            <path
                    id="path2"
                    style="fill:#ffffff;fill-opacity:1;stroke-width:2"
                    d="m 342.91003,222.36031 8.10817,2.4412 -9.96447,33.31433 4.06857,11.03469 -2.24103,2.09815 -4.71292,-3.48486 -0.35752,1.19784 -4.05639,-1.21294 -4.05639,-1.21294 0.35751,-1.19785 -5.85226,0.3244 -0.72129,-2.98356 9.45943,-6.98867 z"/>
            <path
                    id="path64476"
                    style="fill:#ffffff;fill-opacity:1;stroke-width:2"
                    d="m 376.66518,309.53581 c 0,0 -7.34436,-13.79977 -11.01541,-29.51711 l -0.004,0.002 -0.11656,-0.51722 -12.48358,-55.17252 8.26231,-1.85369 12.48008,55.15689 0.11704,0.51712 -0.004,0.002 c 3.45034,15.76729 2.76393,31.38372 2.76393,31.38372 z"/>
            <path
                    style="fill:none;fill-opacity:1;stroke:#ffffff;stroke-width:1.32292;stroke-dasharray:none;stroke-dashoffset:75.9998;stroke-opacity:1"
                    d="m 345.99623,225.34742 c 5.72571,-11.04243 11.4514,-0.81795 11.4514,-0.81795 v 0"
                    id="path64533"/>
            <path
                    id="path64915"
                    style="fill:#ffffff;fill-opacity:1;stroke:none;stroke-width:0;stroke-dasharray:none;stroke-dashoffset:75.9998;stroke-opacity:1"
                    d="m 353.66105,199.53284 a 7.8377259,7.8377259 0 0 0 -6.58758,7.98926 l 15.33639,-2.50379 a 7.8377259,7.8377259 0 0 0 -8.74881,-5.4855 z"/>
            <path
                    style="fill:none;fill-opacity:1;stroke:#ffffff;stroke-width:1.32292;stroke-dasharray:none;stroke-dashoffset:75.9998;stroke-opacity:1"
                    d="m 348.31246,206.51005 c 4.78159,6.29028 9.75107,18.14479 9.75107,18.14479 0,0 0.6615,-13.7102 3.22935,-20.7061"
                    id="path64918"
                    sodipodi:nodetypes="ccc"/>
        </g>
    </g>
</svg>
