<?xml version="1.0" standalone="no"?>
<!DOCTYPE svg PUBLIC "-//W3C//DTD SVG 20010904//EN"
 "http://www.w3.org/TR/2001/REC-SVG-20010904/DTD/svg10.dtd">
<svg version="1.0" xmlns="http://www.w3.org/2000/svg"
 width="302.000000pt" height="302.000000pt" viewBox="0 0 302.000000 302.000000"
 preserveAspectRatio="xMidYMid meet">
<metadata>
Created by potrace 1.14, written by Peter Selinger 2001-2017
</metadata>
<g transform="translate(0.000000,302.000000) scale(0.100000,-0.100000)"
fill="#000000" stroke="none">
<path d="M1422 2968 c-208 -102 -374 -730 -399 -1503 -3 -110 -3 -197 0 -194
4 3 34 138 67 300 33 162 61 298 63 302 1 5 61 -225 132 -510 165 -662 195
-787 186 -776 -4 4 -106 158 -226 341 -120 182 -221 332 -224 331 -9 0 -723
-1120 -718 -1125 2 -2 163 143 356 323 194 181 356 329 361 331 7 3 383 -332
388 -346 1 -4 -41 -74 -93 -156 -53 -82 -93 -151 -90 -154 3 -3 40 28 83 69
42 41 100 96 129 123 l52 49 87 -79 c166 -151 185 -167 189 -162 2 2 -41 71
-95 153 -55 83 -100 153 -100 156 0 7 358 342 371 347 4 2 171 -144 370 -325
198 -180 366 -330 372 -332 13 -5 26 -26 -191 304 -537 816 -545 827 -557 813
-7 -7 -109 -163 -226 -347 -198 -309 -214 -332 -221 -305 -8 32 -198 1265
-198 1285 0 7 80 -66 178 -162 364 -359 462 -453 462 -445 0 4 -103 134 -228
289 -125 155 -294 363 -374 463 l-147 181 24 109 c51 240 132 434 208 499 117
101 250 -19 357 -320 59 -169 104 -378 141 -665 17 -135 18 -139 14 -50 -13
235 -77 602 -141 802 -82 259 -191 408 -296 408 -13 0 -43 -10 -66 -22z"/>
</g>
</svg>
