<svg xmlns="http://www.w3.org/2000/svg" width="132" height="256" viewBox="0 0 34.925 67.733" xmlns:v="https://vecta.io/nano"><path d="M5.647 0S3.588 7.54 3.532 15.61H3.53v.265 45.67L0 66.248l.773 1.326 2.757-.994v.625h2.117 2.117v-.625l2.757.994.773-1.326-3.53-4.703v-45.67-.265h-.002C7.705 7.54 5.647 0 5.647 0z" fill="#fff"/><g fill="#fbfbfb"><path d="M25.562 26.332s.112 1.028-.085 1.399c-.165.313-.619.558-.933.721-.461.239-1.187.282-1.654.509-.501.244-1.228.589-1.527 1.06-.538.85-.461 2.306-.551 3.307-.078.862.097 2.03-.042 2.883-.108.659-.547 1.465-.678 2.12-.203 1.014-.451 2.553-.505 3.586-.035.661.052 2.186.052 2.186l1.266.022.349-1.121c.153-.661.439-.978.604-1.637.131-.524.611-1.527.694-2.06.086-.554.085-1.305.085-1.866 0-.267-.083-.626-.042-.89.056-.362.317-.78.344-1.145.031-.428.005-.945-.009-1.374-.006-.18-.134-.371-.163-.549-.059-.365-.511-1.173-.511-1.173l.451 1.151c.151.556.153 1.338.27 1.902.097.469.441 1.18.509 1.654.131.919.031 2.047-.085 2.968-.102.805-.479 1.833-.636 2.629l-.339 2.205 9.329.297-.212-2.459c-.124-.628-.561-1.4-.636-2.035-.068-.57.093-1.335.127-1.908l.127-2.417c.065-.54.259-1.243.339-1.781.053-.354.034-.841.127-1.187.106-.39.551-1.23.551-1.23s-.507.801-.611 1.175c-.173.619-.186 1.491-.195 2.133-.007.563.129 1.304.085 1.866-.095 1.203.135 2.032.297 2.883.16.842.669 1.886.89 2.714.081.301.212 1.018.212 1.018l1.442.297s.041-.42 0-.594c-.046-.194-.227-.65-.25-.848-.076-.642-.076-1.675-.089-2.502l-.042-2.587c-.195-.586-.384-1.713-.466-2.459-.127-1.151-.096-2.721-.127-3.879-.026-.969-.31-1.521-.763-1.973-.357-.355-1.097-.42-1.569-.594-.495-.182-1.233-.276-1.654-.594-.262-.198-.51-.587-.636-.89-.118-.286-.17-1.018-.17-1.018z"/><path d="M24.966 25.098l.144.72c.059.229.122.546.24.752.132.23.388.486.592.656.169.141.414.318.624.384.261.081.647.119.912.048.161-.043.332-.202.464-.304.25-.193.601-.446.784-.704a1.55 1.55 0 0 0 .208-.496c.076-.328.064-1.12.064-1.12l-.032.832s.284-.224.368-.352a1.56 1.56 0 0 0 .24-.656c.011-.161.035-.46-.112-.528-.119-.055-.384.208-.384.208l.142-.733c.044-.308-.02-.866-.115-1.198a1.7 1.7 0 0 0-.575-.883 1.67 1.67 0 0 0-.731-.369c-.439-.104-1.069-.121-1.503 0-.411.115-.81.386-1.088.709-.163.189-.296.557-.347.801-.057.272-.049.64-.003.914l.126.662s-.212-.292-.32-.24c-.168.082-.034.437-.016.624.023.24.051.578.176.784.042.07.288.208.288.208zM22.42 44.811l.008 3.005c.09 1.053.35 2.442.554 3.48.07.359.247.822.277 1.186.029.355-.062.832-.023 1.186l.078.672c.03.541-.209 1.239-.252 1.779-.061.757-.023 1.774.04 2.531.066.801.278 1.854.395 2.649l.277 1.898c.025.343 0 1.147 0 1.147l1.779.04s.109-.512-.095-1.155c-.065-.204-.076-.83-.053-.958.225-1.209.356-2.473.464-3.739.069-.804.134-1.884.079-2.689l-.087-.896c.01-.388.166-.701.245-1.081l.277-1.423c.043-.389.005-.915.04-1.305.043-.478.17-1.107.237-1.582l.237-1.779c.05-.568.007-2.061.007-2.061l-.6-.565s.501.587.828.591c.319.004.745-.536.745-.536l-.44.419s-.056.144-.026.372v1.305l.079 1.344c.099.722.406 1.647.466 2.372.04.485.032 1.134.025 1.621l.04 1.977c.052.399.239.903.26 1.305.03.549-.235 1.269-.237 1.819-.004.98.284 2.269.395 3.242.076.664.338 1.554.237 2.214l-.152.909 1.615.04.04-1.305c.071-.789.292-1.825.395-2.61l.237-2.096.119-1.542c-.009-.549-.175-1.27-.198-1.819-.02-.474-.023-1.111.04-1.582.086-.642.382-1.462.514-2.096l.474-2.768.158-1.779c-.01-.443-.164-1.463-.164-1.463zm10.433-.954l-.279.628c-.087.175-.129.373-.219.546-.066.128-.119.339-.144.482-.022.124-.059.311-.059.436 0 .178.004.391.045.564.02.083.147.356.223.395.105.052.208.017.29-.067.062-.063-.077-.316-.067-.404.017-.153-.022-.369.035-.511.051-.126.291-.349.291-.349s-.239.191-.209.291c.023.077.188 0 .244.058.108.112.107.347.139.5.025.121.042.285.058.407.021.166.073.407.038.58s-.054.323-.103.455-.13.336-.221.417c-.043.038.002.184.012.24.028.147.188.082.335.052a1.39 1.39 0 0 0 .584-.31c.153-.138.355-.346.477-.501.184-.236.317-.609.396-.896.055-.197.04-.462.049-.665.011-.234.013-.544-.057-.767l-.325-.883-.105-.384zm-11.948.269l.433.509a3.81 3.81 0 0 1 .389.603 4.19 4.19 0 0 1 .24.67c.041.139.103.461.093.606-.011.163.011.441-.056.583-.042.09-.194.126-.276.101-.111-.033-.143-.235-.158-.377-.014-.136-.014-.366-.066-.488-.09-.214-.445-.43-.445-.43s.252.117.304.26c.061.169-.124.46-.145.655l-.07.609-.025.759c.006.165.032.286-.124.576-.048.09-.188.106-.256.121s-.028.234-.09.269a.42.42 0 0 1-.26.007c-.075-.024-.032-.237-.093-.294-.08-.075-.2 0-.277-.079-.137-.141.065-.306-.166-.361-.103-.025-.182-.191-.172-.317.029-.4-.04-.575-.059-.759l-.076-.717c-.01-.237.012-.553.017-.79l.017-.821.056-.915z"/><path d="M23.563 64.746c-.354.703-.77.753-1.088 1.088-.107.113-.473.614-.491.71a.7.7 0 0 0 .03.355c.018.038.116.169.151.196a1.43 1.43 0 0 0 .332.136l.325.083c.107.02.459 0 .567.015.092.013.202.104.295.113.469.046.548-.104.567-.128s.151-.219.234-.249.174-.06.174-.121.156-.582.302-.786c.136-.189.432-.249.529-.461.065-.142.138-.435.008-.521-.147-.097.099-.813.046-.813-.453 0-1.768-.039-1.768-.039zm4.96-.623c-.027.209.295.947.268.942 0 0-.149-.496-.175-.441a6.15 6.15 0 0 0-.194.568c-.117.536.044.548.044.548.174.231.619.417.699.664a1.46 1.46 0 0 0 .469.683l.306.308a.63.63 0 0 0 .244.144c.21.077.45.017.641-.099.073-.044-.024.098.268.07s.508-.217.684-.473a.63.63 0 0 0-.03-.517c-.383-.484-.86-.827-1.122-1.326-.094-.179-.418-.494-.493-.762-.026-.093.003-.279.003-.279zM20.848 43.88l-1.167.135-.005.144-.002.408 1.276-.31-.076-.171zm13.408.065a1.92 1.92 0 0 0 .007.202c-.001.095.051.312.051.312l-1.518-.342.096-.239-.029-.195zm-11.733.619l-.054.257-.014.284 5.698.014 3.551.122v-.162l-.014-.149z"/><path d="M23.819 64.177l-.003.139-.056.142 1.733.007.02-.106.017-.129zm4.774-.217s-.021.087-.026.148a1.03 1.03 0 0 0 .02.195l1.484-.024.015-.127v-.132z"/></g></svg>